<svg width="12" height="12" viewBox="0 0 12 12" fill="none" xmlns="http://www.w3.org/2000/svg">
<path d="M7 6.5H7.5V7H8V7.5H8.5V8H9V8.5H9.5V9H10V9.5H10.5V10H11V10.5H10.5V11H10V10.5H9.5V10H9V9.5H8.5V9H8V8.5H7.5V8H7V7.5H6.5V7H5.5V7.5H5V8H4.5V8.5H4V9H3.5V9.5H3V10H2.5V10.5H2V11H1.5V10.5H1V10H1.5V9.5H2V9H2.5V8.5H3V8H3.5V7.5H4V7H4.5V6.5H5V5.5H4.5V5H4V4.5H3.5V4H3V3.5H2.5V3H2V2.5H1.5V2H1V1.5H1.5V1H2V1.5H2.5V2H3V2.5H3.5V3H4V3.5H4.5V4H5V4.5H5.5V5H6.5V4.5H7V4H7.5V3.5H8V3H8.5V2.5H9V2H9.5V1.5H10V1H10.5V1.5H11V2H10.5V2.5H10V3H9.5V3.5H9V4H8.5V4.5H8V5H7.5V5.5H7V6.5Z" fill="#2563EB"/>
</svg>
