<svg width="20" height="20" viewBox="0 0 20 20" fill="none" xmlns="http://www.w3.org/2000/svg">
<path d="M17.9167 5.08332C17.6667 4.91666 17.3333 4.91666 17.0833 5.08332L13.4167 7.58332V5.83332C13.4167 4.91666 12.6667 4.16666 11.75 4.16666H3.33333C2.41666 4.16666 1.66666 4.91666 1.66666 5.83332V14.1667C1.66666 15.0833 2.41666 15.8333 3.33333 15.8333H11.6667C12.5833 15.8333 13.3333 15.0833 13.3333 14.1667V12.4167L17 14.9167C17.1667 15 17.3333 15.0833 17.5 15.0833C17.6667 15.0833 17.75 15.0833 17.9167 15C18.1667 14.8333 18.3333 14.5833 18.3333 14.25V5.83332C18.3333 5.49999 18.1667 5.24999 17.9167 5.08332ZM11.6667 14.1667H3.33333V5.83332H11.6667V14.1667ZM16.6667 12.5833L13.3333 10.3333V9.58332L16.6667 7.33332V12.5833Z" fill="black"/>
</svg>
