<svg width="17" height="16" viewBox="0 0 17 16" fill="#fff" xmlns="http://www.w3.org/2000/svg">
<path d="M0.469167 3.02024C0.179167 3.32024 0 3.72857 0 4.17691V12.5102C0 13.4269 0.75 14.1769 1.66667 14.1769H10C10.4475 14.1769 10.8558 13.9977 11.1567 13.7077L9.95833 12.5102H1.66667V4.21857L0.469167 3.02024ZM7.49583 4.17691L5.82917 2.51024H10.0833C11 2.51024 11.75 3.26024 11.75 4.17691V5.92691L15.4167 3.42691C15.6667 3.26024 16 3.26024 16.25 3.42691C16.5 3.59357 16.6667 3.84357 16.6667 4.17691V12.5936C16.6667 12.8161 16.5917 13.0019 16.4683 13.1494L15 11.6769V5.67691L11.6667 7.92691V8.34774L10 6.68107V4.17691H7.49583ZM0.589167 1.43274C0.509575 1.35587 0.44609 1.26391 0.402416 1.16224C0.358741 1.06057 0.335753 0.951224 0.334791 0.840575C0.33383 0.729925 0.354915 0.620192 0.396815 0.517778C0.438716 0.415365 0.500594 0.322322 0.578838 0.244078C0.657081 0.165834 0.750125 0.103956 0.852538 0.0620555C0.954952 0.0201547 1.06468 -0.00093005 1.17533 3.14639e-05C1.28598 0.000992978 1.39533 0.0239815 1.497 0.0676557C1.59867 0.11133 1.69063 0.174815 1.7675 0.254407L15.9092 14.3961C16.0611 14.5531 16.1452 14.7636 16.1435 14.9821C16.1417 15.2006 16.0542 15.4097 15.8998 15.5643C15.7455 15.7189 15.5365 15.8067 15.318 15.8087C15.0995 15.8108 14.8889 15.7269 14.7317 15.5752L0.59 1.43357L0.589167 1.43274Z" fill="#FF5353"/>
</svg>
