<svg width="24" height="24" viewBox="0 0 24 24" fill="none" xmlns="http://www.w3.org/2000/svg">
<path d="M8 11.05C8.01057 12.0074 8.36556 12.9289 9 13.646C9.36939 14.0658 9.82289 14.4033 10.3311 14.6365C10.8393 14.8698 11.3909 14.9936 11.95 15L8 11.05ZM15.898 11.903C15.965 11.613 16 11.31 16 11V5.99999C16.0005 5.08466 15.6871 4.19684 15.112 3.48471C14.537 2.77258 13.7351 2.27922 12.8401 2.08697C11.9452 1.89472 11.0115 2.01521 10.1947 2.42833C9.37786 2.84145 8.72746 3.52221 8.352 4.35699L10 6.00499V5.99999C10 5.46955 10.2107 4.96085 10.5858 4.58577C10.9609 4.2107 11.4696 3.99999 12 3.99999C12.5304 3.99999 13.0391 4.2107 13.4142 4.58577C13.7893 4.96085 14 5.46955 14 5.99999V10.005L15.898 11.903Z" fill="#FF5353"/>
<path d="M13.704 16.753C12.8089 17.0181 11.8642 17.0707 10.9451 16.9066C10.0261 16.7425 9.15803 16.3661 8.40999 15.8075C7.66196 15.2489 7.0546 14.5235 6.63622 13.6889C6.21784 12.8543 5.99999 11.9336 6 11C6 10.7348 5.89464 10.4804 5.70711 10.2929C5.51957 10.1053 5.26522 9.99999 5 9.99999C4.73478 9.99999 4.48043 10.1053 4.29289 10.2929C4.10536 10.4804 4 10.7348 4 11C3.99988 12.949 4.71124 14.8309 6.0005 16.2926C7.28977 17.7542 9.06825 18.6949 11.002 18.938L11 19V21C11 21.2652 11.1054 21.5196 11.2929 21.7071C11.4804 21.8946 11.7348 22 12 22C12.2652 22 12.5196 21.8946 12.7071 21.7071C12.8946 21.5196 13 21.2652 13 21V19C13 18.979 13 18.958 12.998 18.937C13.7782 18.8392 14.5397 18.6269 15.258 18.307L13.704 16.753ZM18.953 14.957L17.467 13.472C17.8183 12.6952 18 11.8525 18 11C18 10.7348 18.1054 10.4804 18.2929 10.2929C18.4804 10.1053 18.7348 9.99999 19 9.99999C19.2652 9.99999 19.5196 10.1053 19.7071 10.2929C19.8946 10.4804 20 10.7348 20 11C20 12.3875 19.6392 13.7511 18.953 14.957ZM2.707 3.70699C2.61149 3.61474 2.53531 3.5044 2.4829 3.38239C2.43049 3.26039 2.4029 3.12917 2.40175 2.99639C2.4006 2.86361 2.4259 2.73193 2.47618 2.60904C2.52646 2.48614 2.60071 2.37449 2.69461 2.28059C2.7885 2.1867 2.90015 2.11245 3.02305 2.06217C3.14594 2.01189 3.27762 1.98659 3.4104 1.98774C3.54318 1.98889 3.6744 2.01648 3.7964 2.06889C3.91841 2.1213 4.02875 2.19748 4.121 2.29299L21.091 19.263C21.2733 19.4515 21.3743 19.704 21.3722 19.9662C21.3701 20.2284 21.2651 20.4793 21.0798 20.6648C20.8945 20.8504 20.6438 20.9557 20.3816 20.9582C20.1194 20.9606 19.8667 20.86 19.678 20.678L2.708 3.70799L2.707 3.70699Z" fill="#FF5353"/>
</svg>
