<svg width="20" height="21" viewBox="0 0 20 21" fill="none" xmlns="http://www.w3.org/2000/svg">
<path d="M11.4186 14.3044C10.6726 14.5254 9.88539 14.5692 9.11952 14.4324C8.35365 14.2956 7.63026 13.982 7.0069 13.5165C6.38354 13.051 5.8774 12.4465 5.52876 11.751C5.18011 11.0555 4.99857 10.2882 4.99857 9.51024C4.99857 9.28923 4.91078 9.07726 4.7545 8.92098C4.59822 8.7647 4.38625 8.67691 4.16524 8.67691C3.94423 8.67691 3.73226 8.7647 3.57598 8.92098C3.4197 9.07726 3.33191 9.28923 3.33191 9.51024C3.33181 11.1344 3.92461 12.7027 4.99899 13.9207C6.07338 15.1387 7.55545 15.9226 9.16691 16.1252L9.16524 16.1769V17.8436C9.16524 18.0646 9.25304 18.2765 9.40932 18.4328C9.5656 18.5891 9.77756 18.6769 9.99857 18.6769C10.2196 18.6769 10.4315 18.5891 10.5878 18.4328C10.7441 18.2765 10.8319 18.0646 10.8319 17.8436V16.1769C10.8319 16.1594 10.8319 16.1419 10.8302 16.1244C11.4804 16.0429 12.115 15.866 12.7136 15.5994L11.4186 14.3044ZM15.7927 12.8077L14.5544 11.5702C14.8471 10.9229 14.9985 10.2207 14.9986 9.51024C14.9986 9.28923 15.0864 9.07726 15.2427 8.92098C15.3989 8.7647 15.6109 8.67691 15.8319 8.67691C16.0529 8.67691 16.2649 8.7647 16.4212 8.92098C16.5774 9.07726 16.6652 9.28923 16.6652 9.51024C16.6653 10.6665 16.3646 11.8028 15.7927 12.8077ZM2.25441 3.43274C2.17481 3.35587 2.11133 3.26391 2.06766 3.16224C2.02398 3.06057 2.00099 2.95122 2.00003 2.84057C1.99907 2.72993 2.02015 2.62019 2.06206 2.51778C2.10396 2.41536 2.16583 2.32232 2.24408 2.24408C2.32232 2.16583 2.41536 2.10396 2.51778 2.06206C2.62019 2.02015 2.72992 1.99907 2.84057 2.00003C2.95122 2.00099 3.06057 2.02398 3.16224 2.06766C3.26391 2.11133 3.35587 2.17481 3.43274 2.25441L17.5744 16.3961C17.7263 16.5531 17.8105 16.7636 17.8087 16.9821C17.807 17.2006 17.7195 17.4097 17.5651 17.5643C17.4107 17.7189 17.2017 17.8067 16.9832 17.8087C16.7647 17.8108 16.5542 17.7269 16.3969 17.5752L2.25524 3.43357L2.25441 3.43274Z" fill="#FF5353"/>
<path d="M6.60291 9.51956C6.61163 10.3444 6.90462 11.1383 7.42827 11.7561C7.73315 12.1178 8.10745 12.4085 8.52691 12.6095C8.94636 12.8105 9.4016 12.9171 9.8631 12.9226L6.60291 9.51956ZM13.1216 10.2544C13.1769 10.0046 13.2058 9.74356 13.2058 9.47648V5.16879C13.2062 4.3802 12.9476 3.61531 12.4729 3.00179C11.9983 2.38826 11.3364 1.96321 10.5978 1.79758C9.85916 1.63195 9.08845 1.73575 8.4143 2.09167C7.74014 2.44759 7.20332 3.03409 6.89343 3.75328L8.25363 5.1731V5.16879C8.25363 4.7118 8.42755 4.27353 8.73712 3.95039C9.04669 3.62725 9.46656 3.44571 9.90436 3.44571C10.3422 3.44571 10.762 3.62725 11.0716 3.95039C11.3812 4.27353 11.5551 4.7118 11.5551 5.16879V8.61925L13.1216 10.2544Z" fill="#FF5353"/>
</svg>
