<svg width="20" height="20" viewBox="0 0 20 20" fill="none" xmlns="http://www.w3.org/2000/svg">
<path fill-rule="evenodd" clip-rule="evenodd" d="M11.6667 9.16666V4.99999C11.6667 4.55796 11.4911 4.13404 11.1785 3.82148C10.866 3.50892 10.442 3.33332 10 3.33332C9.55798 3.33332 9.13405 3.50892 8.82149 3.82148C8.50893 4.13404 8.33334 4.55796 8.33334 4.99999V9.16666C8.33334 9.60868 8.50893 10.0326 8.82149 10.3452C9.13405 10.6577 9.55798 10.8333 10 10.8333C10.442 10.8333 10.866 10.6577 11.1785 10.3452C11.4911 10.0326 11.6667 9.60868 11.6667 9.16666ZM10 1.66666C9.11595 1.66666 8.2681 2.01785 7.64298 2.64297C7.01786 3.26809 6.66667 4.11593 6.66667 4.99999V9.16666C6.66667 10.0507 7.01786 10.8986 7.64298 11.5237C8.2681 12.1488 9.11595 12.5 10 12.5C10.8841 12.5 11.7319 12.1488 12.357 11.5237C12.9821 10.8986 13.3333 10.0507 13.3333 9.16666V4.99999C13.3333 4.11593 12.9821 3.26809 12.357 2.64297C11.7319 2.01785 10.8841 1.66666 10 1.66666Z" fill="black"/>
<path fill-rule="evenodd" clip-rule="evenodd" d="M15.8333 8.33334C16.0543 8.33334 16.2663 8.42114 16.4226 8.57742C16.5789 8.7337 16.6667 8.94566 16.6667 9.16668C16.6667 10.9348 15.9643 12.6305 14.714 13.8807C13.4638 15.131 11.7681 15.8333 9.99999 15.8333C8.23188 15.8333 6.53619 15.131 5.28595 13.8807C4.03571 12.6305 3.33333 10.9348 3.33333 9.16668C3.33333 8.94566 3.42113 8.7337 3.57741 8.57742C3.73369 8.42114 3.94565 8.33334 4.16666 8.33334C4.38768 8.33334 4.59964 8.42114 4.75592 8.57742C4.9122 8.7337 4.99999 8.94566 4.99999 9.16668C4.99999 10.4928 5.52678 11.7645 6.46446 12.7022C7.40214 13.6399 8.67391 14.1667 9.99999 14.1667C11.3261 14.1667 12.5978 13.6399 13.5355 12.7022C14.4732 11.7645 15 10.4928 15 9.16668C15 8.94566 15.0878 8.7337 15.2441 8.57742C15.4004 8.42114 15.6123 8.33334 15.8333 8.33334Z" fill="black"/>
<path fill-rule="evenodd" clip-rule="evenodd" d="M10 15C10.221 15 10.433 15.0878 10.5893 15.2441C10.7455 15.4004 10.8333 15.6123 10.8333 15.8333V17.5C10.8333 17.721 10.7455 17.933 10.5893 18.0893C10.433 18.2455 10.221 18.3333 10 18.3333C9.77899 18.3333 9.56703 18.2455 9.41075 18.0893C9.25447 17.933 9.16667 17.721 9.16667 17.5V15.8333C9.16667 15.6123 9.25447 15.4004 9.41075 15.2441C9.56703 15.0878 9.77899 15 10 15Z" fill="black"/>
</svg>
