<svg width="20" height="20" viewBox="0 0 20 20" fill="none" xmlns="http://www.w3.org/2000/svg">
<path fill-rule="evenodd" clip-rule="evenodd" d="M3.33334 2.5C2.89131 2.5 2.46739 2.67559 2.15483 2.98816C1.84227 3.30072 1.66667 3.72464 1.66667 4.16667V13.3333C1.66667 13.7754 1.84227 14.1993 2.15483 14.5118C2.46739 14.8244 2.89131 15 3.33334 15H9.16667V16.6667H6.66667C6.44566 16.6667 6.2337 16.7545 6.07742 16.9107C5.92114 17.067 5.83334 17.279 5.83334 17.5C5.83334 17.721 5.92114 17.933 6.07742 18.0893C6.2337 18.2455 6.44566 18.3333 6.66667 18.3333H13.3333C13.5544 18.3333 13.7663 18.2455 13.9226 18.0893C14.0789 17.933 14.1667 17.721 14.1667 17.5C14.1667 17.279 14.0789 17.067 13.9226 16.9107C13.7663 16.7545 13.5544 16.6667 13.3333 16.6667H10.8333V15H16.6667C17.1087 15 17.5326 14.8244 17.8452 14.5118C18.1577 14.1993 18.3333 13.7754 18.3333 13.3333V4.16667C18.3333 3.72464 18.1577 3.30072 17.8452 2.98816C17.5326 2.67559 17.1087 2.5 16.6667 2.5H3.33334ZM11.2267 6.35333C11.0706 6.18362 10.881 6.04815 10.6698 5.95548C10.4587 5.86282 10.2306 5.81497 10 5.81497C9.76942 5.81497 9.54135 5.86282 9.3302 5.95548C9.11906 6.04815 8.92944 6.18362 8.77334 6.35333L6.67834 8.63333C6.5354 8.79704 6.46207 9.01012 6.47399 9.22712C6.48591 9.44412 6.58213 9.64788 6.74214 9.79495C6.90214 9.94202 7.11327 10.0208 7.33051 10.0144C7.54775 10.008 7.7539 9.91703 7.905 9.76083L9.16667 8.38833V10.6667C9.16667 10.8877 9.25447 11.0996 9.41075 11.2559C9.56703 11.4122 9.77899 11.5 10 11.5C10.221 11.5 10.433 11.4122 10.5893 11.2559C10.7455 11.0996 10.8333 10.8877 10.8333 10.6667V8.3875L12.095 9.76C12.2461 9.9162 12.4523 10.0072 12.6695 10.0136C12.8867 10.0199 13.0979 9.94119 13.2579 9.79412C13.4179 9.64705 13.5141 9.44329 13.526 9.22628C13.5379 9.00928 13.4646 8.79621 13.3217 8.6325L11.2267 6.35333Z" fill="black"/>
</svg>
