<svg width="21" height="20" viewBox="0 0 21 20" fill="none" xmlns="http://www.w3.org/2000/svg">
<path fill-rule="evenodd" clip-rule="evenodd" d="M2 3.66667C2 3.22464 2.17559 2.80072 2.48816 2.48816C2.80072 2.17559 3.22464 2 3.66667 2H17C17.442 2 17.8659 2.17559 18.1785 2.48816C18.4911 2.80072 18.6667 3.22464 18.6667 3.66667V12.8333C18.6667 13.2754 18.4911 13.6993 18.1785 14.0118C17.8659 14.3244 17.442 14.5 17 14.5H11.1667V16.1667H13.6667C13.8877 16.1667 14.0996 16.2545 14.2559 16.4107C14.4122 16.567 14.5 16.779 14.5 17C14.5 17.221 14.4122 17.433 14.2559 17.5893C14.0996 17.7455 13.8877 17.8333 13.6667 17.8333H7C6.77899 17.8333 6.56702 17.7455 6.41074 17.5893C6.25446 17.433 6.16667 17.221 6.16667 17C6.16667 16.779 6.25446 16.567 6.41074 16.4107C6.56702 16.2545 6.77899 16.1667 7 16.1667H9.5V14.5H3.66667C3.22464 14.5 2.80072 14.3244 2.48816 14.0118C2.17559 13.6993 2 13.2754 2 12.8333V3.66667ZM17 12.8333V3.66667H3.66667V12.8333H17Z" fill="white"/>
<path d="M9.06578 6.30039C9.22709 6.13209 9.42303 5.99775 9.64121 5.90585C9.85939 5.81396 10.0951 5.76651 10.3333 5.76651C10.5716 5.76651 10.8073 5.81396 11.0255 5.90585C11.2437 5.99775 11.4396 6.13209 11.6009 6.30039L13.7657 8.56056C13.8456 8.63984 13.9082 8.73366 13.9497 8.8365C13.9913 8.93935 14.0109 9.04913 14.0076 9.15938C14.0042 9.26963 13.9779 9.37812 13.9301 9.47845C13.8824 9.57878 13.8142 9.66893 13.7296 9.74357C13.6449 9.81821 13.5456 9.87584 13.4374 9.91306C13.3292 9.95028 13.2144 9.96634 13.0996 9.96029C12.9848 9.95424 12.8725 9.92621 12.7692 9.87784C12.6659 9.82947 12.5738 9.76175 12.4982 9.67867L11.1944 8.31843V10.5778C11.1944 10.7969 11.1037 11.0071 10.9422 11.1621C10.7807 11.3171 10.5617 11.4042 10.3333 11.4042C10.105 11.4042 9.88593 11.3171 9.72444 11.1621C9.56295 11.0071 9.47223 10.7969 9.47223 10.5778V8.3176L8.1685 9.67867C8.01236 9.83356 7.79934 9.92379 7.57486 9.93011C7.35038 9.93644 7.13221 9.85835 6.96687 9.7125C6.80153 9.56666 6.7021 9.36459 6.68979 9.1494C6.67747 8.9342 6.75325 8.72291 6.90095 8.56056L9.06578 6.30039Z" fill="white"/>
</svg>
