<svg width="121" height="121" viewBox="0 0 121 121" fill="none" xmlns="http://www.w3.org/2000/svg">
<rect width="121" height="121" rx="20" fill="#DEFFEE"/>
<g clip-path="url(#clip0_462_11072)">
<path d="M67 41H73V47H88C88.7957 47 89.5587 47.3161 90.1213 47.8787C90.6839 48.4413 91 49.2044 91 50V72.5L73 62L73.108 86.186L79.777 79.736L85.123 89H52C51.2044 89 50.4413 88.6839 49.8787 88.1213C49.3161 87.5587 49 86.7957 49 86V71H43V65H49V50C49 49.2044 49.3161 48.4413 49.8787 47.8787C50.4413 47.3161 51.2044 47 52 47H67V41ZM91 75.014V86C91.0003 86.3126 90.9517 86.6234 90.856 86.921L84.976 76.739L91 75.014ZM37 65V71H31V65H37ZM37 53V59H31V53H37ZM37 41V47H31V41H37ZM37 29V35H31V29H37ZM49 29V35H43V29H49ZM61 29V35H55V29H61ZM73 29V35H67V29H73Z" fill="#139D55"/>
</g>
<defs>
<clipPath id="clip0_462_11072">
<rect width="65" height="65" fill="white" transform="translate(32 24)"/>
</clipPath>
</defs>
</svg>
