<svg width="121" height="121" viewBox="0 0 121 121" fill="none" xmlns="http://www.w3.org/2000/svg">
<rect width="121" height="121" rx="20" fill="#F1F7FF"/>
<g clip-path="url(#clip0_462_11070)">
<path d="M47.0002 56.315H45.0427C42.3714 56.2184 39.7087 56.6719 37.22 57.6473C34.7312 58.6227 32.4695 60.0991 30.5752 61.985L30.0352 62.615V81.245H39.2152V70.67L40.4527 69.275L41.0152 68.6225C43.9445 65.6131 47.5914 63.3986 51.6127 62.1875C49.5993 60.6555 48.0115 58.6339 47.0002 56.315Z" fill="#006DFF"/>
<path d="M90.5157 61.9175C88.6213 60.0316 86.3596 58.5551 83.8709 57.5798C81.3821 56.6044 78.7195 56.1509 76.0482 56.2475C75.2289 56.2498 74.4103 56.2949 73.5957 56.3825C72.5654 58.558 71.0209 60.45 69.0957 61.895C73.3887 63.0826 77.2776 65.416 80.3457 68.645L80.9082 69.275L82.1232 70.67V81.2675H90.9882V62.5475L90.5157 61.9175Z" fill="#006DFF"/>
<path d="M44.9747 51.9275H45.6722C45.3481 49.1448 45.8364 46.3278 47.0781 43.8165C48.3198 41.3052 50.2618 39.2069 52.6697 37.775C51.7969 36.4416 50.5927 35.3577 49.175 34.6294C47.7574 33.9012 46.1749 33.5536 44.5826 33.6207C42.9903 33.6878 41.4427 34.1673 40.0914 35.0122C38.74 35.8571 37.6313 37.0385 36.8737 38.4407C36.1161 39.8429 35.7357 41.4178 35.7697 43.0111C35.8036 44.6045 36.2508 46.1618 37.0674 47.5304C37.8841 48.899 39.0421 50.0321 40.4282 50.8187C41.8143 51.6052 43.381 52.0184 44.9747 52.0175V51.9275Z" fill="#006DFF"/>
<path d="M74.9666 50.24C74.994 50.7571 74.994 51.2754 74.9666 51.7925C75.3984 51.861 75.8345 51.8986 76.2716 51.905H76.6991C78.2859 51.8204 79.8237 51.3264 81.1628 50.471C82.5019 49.6157 83.5968 48.4282 84.3407 47.0241C85.0847 45.6201 85.4524 44.0473 85.4081 42.4589C85.3638 40.8705 84.9089 39.3207 84.0878 37.9603C83.2667 36.5999 82.1074 35.4753 80.7227 34.6959C79.3379 33.9166 77.775 33.5091 76.186 33.5131C74.597 33.5171 73.0361 33.9325 71.6553 34.7188C70.2745 35.5051 69.1209 36.6355 68.3066 38C70.3431 39.3296 72.0176 41.1439 73.18 43.2802C74.3424 45.4165 74.9563 47.808 74.9666 50.24Z" fill="#006DFF"/>
<path d="M60.2079 60.32C65.7625 60.32 70.2654 55.8171 70.2654 50.2625C70.2654 44.7079 65.7625 40.205 60.2079 40.205C54.6533 40.205 50.1504 44.7079 50.1504 50.2625C50.1504 55.8171 54.6533 60.32 60.2079 60.32Z" fill="#006DFF"/>
<path d="M60.7475 65.675C57.8091 65.5563 54.8771 66.0334 52.1278 67.0774C49.3786 68.1214 46.869 69.7108 44.75 71.75L44.1875 72.38V86.6225C44.1963 87.0864 44.2964 87.544 44.4821 87.9692C44.6677 88.3945 44.9354 88.779 45.2697 89.1007C45.604 89.4225 45.9984 89.6753 46.4304 89.8446C46.8624 90.0139 47.3236 90.0964 47.7875 90.0875H73.64C74.1039 90.0964 74.5651 90.0139 74.9971 89.8446C75.4291 89.6753 75.8235 89.4225 76.1578 89.1007C76.4921 88.779 76.7598 88.3945 76.9454 87.9692C77.1311 87.544 77.2312 87.0864 77.24 86.6225V72.425L76.7 71.75C74.5947 69.7045 72.0939 68.1106 69.3507 67.066C66.6076 66.0214 63.6801 65.548 60.7475 65.675Z" fill="#006DFF"/>
</g>
<defs>
<clipPath id="clip0_462_11070">
<rect width="81" height="81" fill="white" transform="translate(20 20)"/>
</clipPath>
</defs>
</svg>
