<svg width="121" height="121" viewBox="0 0 121 121" fill="none" xmlns="http://www.w3.org/2000/svg">
<rect width="121" height="121" rx="20" fill="#FFF7E3"/>
<path d="M50.4346 28.4116C45.4818 27.8628 40.4835 27.8628 35.5307 28.4116C33.985 28.5836 32.5426 29.272 31.4373 30.3655C30.332 31.459 29.6286 32.8933 29.4409 34.4362C28.853 39.4583 28.853 44.5317 29.4409 49.5537C29.6286 51.0966 30.332 52.531 31.4373 53.6244C32.5426 54.7179 33.985 55.4064 35.5307 55.5784C40.4422 56.1257 45.5231 56.1257 50.4346 55.5784C51.9804 55.4064 53.4227 54.7179 54.528 53.6244C55.6333 52.531 56.3368 51.0966 56.5245 49.5537C57.1123 44.5317 57.1123 39.4583 56.5245 34.4362C56.3368 32.8933 55.6333 31.459 54.528 30.3655C53.4227 29.272 51.9804 28.5836 50.4346 28.4116ZM50.4346 64.4227C45.4818 63.8739 40.4835 63.8739 35.5307 64.4227C33.985 64.5947 32.5426 65.2832 31.4373 66.3766C30.332 67.4701 29.6286 68.9045 29.4409 70.4474C28.853 75.4694 28.853 80.5428 29.4409 85.5648C29.6286 87.1077 30.332 88.5421 31.4373 89.6356C32.5426 90.729 33.985 91.4175 35.5307 91.5895C40.4422 92.1368 45.5231 92.1368 50.4346 91.5895C51.9804 91.4175 53.4227 90.729 54.528 89.6356C55.6333 88.5421 56.3368 87.1077 56.5245 85.5648C57.1124 80.5428 57.1124 75.4694 56.5245 70.4474C56.3368 68.9045 55.6333 67.4701 54.528 66.3766C53.4227 65.2832 51.9804 64.5947 50.4346 64.4227ZM86.4692 28.4116C81.5164 27.8628 76.5181 27.8628 71.5653 28.4116C70.0196 28.5836 68.5772 29.272 67.472 30.3655C66.3667 31.459 65.6632 32.8933 65.4755 34.4362C64.8876 39.4583 64.8876 44.5317 65.4755 49.5537C65.6632 51.0966 66.3667 52.531 67.472 53.6244C68.5772 54.7179 70.0196 55.4064 71.5653 55.5784C76.4804 56.1257 81.5541 56.1257 86.4692 55.5784C88.015 55.4064 89.4573 54.7179 90.5626 53.6244C91.6679 52.531 92.3714 51.0966 92.5591 49.5537C93.1469 44.5317 93.1469 39.4583 92.5591 34.4362C92.3714 32.8933 91.6679 31.459 90.5626 30.3655C89.4573 29.272 88.015 28.5836 86.4692 28.4116ZM86.4692 64.4227C81.5164 63.8739 76.5181 63.8739 71.5653 64.4227C70.0196 64.5947 68.5772 65.2832 67.472 66.3766C66.3667 67.4701 65.6632 68.9045 65.4755 70.4474C64.8876 75.4694 64.8876 80.5428 65.4755 85.5648C65.6632 87.1077 66.3667 88.5421 67.472 89.6356C68.5772 90.729 70.0196 91.4175 71.5653 91.5895C76.4804 92.1368 81.5541 92.1368 86.4692 91.5895C88.015 91.4175 89.4573 90.729 90.5626 89.6356C91.6679 88.5421 92.3714 87.1077 92.5591 85.5648C93.147 80.5428 93.147 75.4694 92.5591 70.4474C92.3714 68.9045 91.6679 67.4701 90.5626 66.3766C89.4573 65.2832 88.015 64.5947 86.4692 64.4227Z" fill="#FFB803"/>
</svg>
