<svg width="121" height="121" viewBox="0 0 121 121" fill="none" xmlns="http://www.w3.org/2000/svg">
<rect width="121" height="121" rx="20" fill="#FFF2F8"/>
<path d="M25 83.3571C25 85.1189 25.6914 86.8086 26.9221 88.0544C28.1528 89.3001 29.822 90 31.5625 90H88.4375C90.178 90 91.8472 89.3001 93.0779 88.0544C94.3086 86.8086 95 85.1189 95 83.3571V52.3571C95 50.5953 94.3086 48.9057 93.0779 47.6599C91.8472 46.4142 90.178 45.7143 88.4375 45.7143H31.5625C29.822 45.7143 28.1528 46.4142 26.9221 47.6599C25.6914 48.9057 25 50.5953 25 52.3571V83.3571ZM33.75 39.0714C33.75 39.6587 33.9805 40.2219 34.3907 40.6372C34.8009 41.0524 35.3573 41.2857 35.9375 41.2857H84.0625C84.6427 41.2857 85.1991 41.0524 85.6093 40.6372C86.0195 40.2219 86.25 39.6587 86.25 39.0714C86.25 38.4842 86.0195 37.921 85.6093 37.5057C85.1991 37.0904 84.6427 36.8571 84.0625 36.8571H35.9375C35.3573 36.8571 34.8009 37.0904 34.3907 37.5057C33.9805 37.921 33.75 38.4842 33.75 39.0714ZM42.5 30.2143C42.5 30.8016 42.7305 31.3648 43.1407 31.78C43.5509 32.1953 44.1073 32.4286 44.6875 32.4286H75.3125C75.8927 32.4286 76.4491 32.1953 76.8593 31.78C77.2695 31.3648 77.5 30.8016 77.5 30.2143C77.5 29.627 77.2695 29.0638 76.8593 28.6485C76.4491 28.2333 75.8927 28 75.3125 28H44.6875C44.1073 28 43.5509 28.2333 43.1407 28.6485C42.7305 29.0638 42.5 29.627 42.5 30.2143Z" fill="#FF55A3"/>
</svg>
