<svg width="20" height="20" viewBox="0 0 20 20" fill="none" xmlns="http://www.w3.org/2000/svg">
<path d="M4.41098 4.41078C4.56725 4.25455 4.77918 4.16679 5.00015 4.16679C5.22112 4.16679 5.43304 4.25455 5.58931 4.41078L10.0001 8.82161L14.411 4.41078C14.4879 4.33119 14.5798 4.2677 14.6815 4.22403C14.7831 4.18035 14.8925 4.15737 15.0031 4.1564C15.1138 4.15544 15.2235 4.17653 15.3259 4.21843C15.4284 4.26033 15.5214 4.32221 15.5996 4.40045C15.6779 4.47869 15.7398 4.57174 15.7817 4.67415C15.8236 4.77656 15.8447 4.8863 15.8437 4.99695C15.8427 5.1076 15.8197 5.21695 15.7761 5.31862C15.7324 5.42029 15.6689 5.51224 15.5893 5.58911L11.1785 9.99995L15.5893 14.4108C15.7411 14.5679 15.8251 14.7784 15.8232 14.9969C15.8213 15.2154 15.7337 15.4245 15.5792 15.579C15.4247 15.7335 15.2156 15.8211 14.9971 15.823C14.7787 15.8249 14.5681 15.7409 14.411 15.5891L10.0001 11.1783L5.58931 15.5891C5.43215 15.7409 5.22164 15.8249 5.00315 15.823C4.78465 15.8211 4.57564 15.7335 4.42113 15.579C4.26663 15.4245 4.17898 15.2154 4.17709 14.9969C4.17519 14.7784 4.25918 14.5679 4.41098 14.4108L8.82181 9.99995L4.41098 5.58911C4.25476 5.43284 4.16699 5.22092 4.16699 4.99995C4.16699 4.77898 4.25476 4.56705 4.41098 4.41078Z" fill="#27262E"/>
</svg>
