<svg width="16" height="16" viewBox="0 0 16 16" fill="none" xmlns="http://www.w3.org/2000/svg">
<path d="M12.4718 9.80429C12.3468 9.92927 12.1772 9.99948 12.0005 9.99948C11.8237 9.99948 11.6542 9.92927 11.5291 9.80429L8.00047 6.27562L4.4718 9.80429C4.4103 9.86796 4.33674 9.91875 4.2554 9.95369C4.17407 9.98863 4.08659 10.007 3.99807 10.0078C3.90955 10.0086 3.82176 9.99169 3.73983 9.95817C3.6579 9.92465 3.58347 9.87514 3.52087 9.81255C3.45828 9.74995 3.40877 9.67552 3.37525 9.59359C3.34173 9.51166 3.32486 9.42387 3.32563 9.33535C3.3264 9.24683 3.34479 9.15935 3.37973 9.07802C3.41467 8.99668 3.46546 8.92312 3.52913 8.86162L7.52913 4.86162C7.65415 4.73664 7.82369 4.66643 8.00047 4.66643C8.17724 4.66643 8.34678 4.73664 8.4718 4.86162L12.4718 8.86162C12.5968 8.98664 12.667 9.15618 12.667 9.33295C12.667 9.50973 12.5968 9.67927 12.4718 9.80429Z" fill="#8C9097"/>
</svg>
