<svg width="22" height="22" viewBox="0 0 22 22" fill="none" xmlns="http://www.w3.org/2000/svg">
<path opacity="0.4" d="M17.2421 8.2699C16.8282 8.2699 16.28 8.26073 15.5974 8.26073C13.9328 8.26073 12.5641 6.88298 12.5641 5.20273V2.25473C12.5641 2.02282 12.3789 1.83398 12.1493 1.83398H7.30064C5.03789 1.83398 3.20898 3.69115 3.20898 5.96723V15.8443C3.20898 18.2322 5.12502 20.1673 7.48943 20.1673H14.7097C16.9643 20.1673 18.7923 18.3221 18.7923 16.0441V8.6824C18.7923 8.44957 18.6081 8.26165 18.3775 8.26257C17.99 8.26532 17.5252 8.2699 17.2421 8.2699Z" fill="#56555C"/>
<path opacity="0.4" d="M14.7448 2.35391C14.4707 2.06883 13.9922 2.26499 13.9922 2.66008V5.07733C13.9922 6.09116 14.8273 6.92533 15.8411 6.92533C16.48 6.93266 17.3674 6.93449 18.1209 6.93266C18.5068 6.93174 18.7029 6.47066 18.4353 6.19199C17.4682 5.18641 15.7366 3.38424 14.7448 2.35391Z" fill="#56555C"/>
<path d="M13.2173 13.6522C13.5941 13.6522 13.9003 13.9584 13.9003 14.3352C13.9003 14.7119 13.5941 15.0172 13.2173 15.0172H8.22701C7.85026 15.0172 7.54501 14.7119 7.54501 14.3352C7.54501 13.9584 7.85026 13.6522 8.22701 13.6522H13.2173ZM11.3298 9.07422C11.7066 9.07422 12.0128 9.38039 12.0128 9.75714C12.0128 10.1339 11.7066 10.4391 11.3298 10.4391H8.22692C7.85017 10.4391 7.54492 10.1339 7.54492 9.75714C7.54492 9.38039 7.85017 9.07422 8.22692 9.07422H11.3298Z" fill="#56555C"/>
</svg>
