<svg width="20" height="20" viewBox="0 0 20 20" fill="none" xmlns="http://www.w3.org/2000/svg">
<path d="M2.74626 13.0908C3.07176 13.4162 3.59936 13.4161 3.92473 13.0906C4.25011 12.7651 4.25004 12.2375 3.92454 11.9121L2.01238 10.0006L4.90294 7.11006C6.64773 5.36528 9.12463 4.65437 11.495 5.1538C11.9453 5.24868 12.3873 4.96053 12.4822 4.51019C12.577 4.05986 12.2889 3.61788 11.8386 3.523C8.92264 2.90865 5.87178 3.78424 3.72443 5.93159L0.244552 9.41146C-0.0809053 9.73692 -0.0808663 10.2646 0.244669 10.59L2.74626 13.0908Z" fill="#B8B8B8"/>
<path d="M19.7561 9.41048L17.2545 6.90975C16.929 6.58437 16.4014 6.58445 16.076 6.90995C15.7506 7.23544 15.7507 7.76304 16.0762 8.08842L17.9884 9.99992L15.0978 12.8905C13.353 14.6353 10.8761 15.3462 8.50575 14.8467C8.05542 14.7519 7.61344 15.04 7.51856 15.4903C7.42368 15.9407 7.71183 16.3827 8.16217 16.4775C11.0781 17.0919 14.129 16.2163 16.2763 14.069L19.7562 10.5891C20.0816 10.2636 20.0816 9.73586 19.7561 9.41048Z" fill="#B8B8B8"/>
<path d="M5.83398 10.0002C5.83398 10.4605 6.20706 10.8335 6.66728 10.8335C7.12749 10.8335 7.50057 10.4605 7.50057 10.0002C7.50057 8.6197 8.61994 7.50032 10.0005 7.50032C10.4607 7.50032 10.8338 7.12725 10.8338 6.66703C10.8338 6.20681 10.4607 5.83374 10.0005 5.83374C7.6995 5.8337 5.83398 7.69922 5.83398 10.0002Z" fill="#B8B8B8"/>
<path d="M12.5002 10.0003C12.5002 11.3809 11.3808 12.5002 10.0003 12.5002C9.54007 12.5002 9.16699 12.8733 9.16699 13.3335C9.16699 13.7937 9.54007 14.1668 10.0003 14.1668C12.3013 14.1668 14.1668 12.3013 14.1668 10.0003C14.1668 9.54006 13.7937 9.16699 13.3335 9.16699C12.8733 9.16699 12.5002 9.5401 12.5002 10.0003Z" fill="#B8B8B8"/>
<path d="M19.7552 0.244064C19.4298 -0.0813546 18.9022 -0.0813546 18.5767 0.244064L0.244064 18.5768C-0.0813546 18.9022 -0.0813546 19.4298 0.244064 19.7552C0.569482 20.0806 1.09712 20.0806 1.42254 19.7552L19.7552 1.42254C20.0807 1.09712 20.0807 0.569482 19.7552 0.244064Z" fill="#B8B8B8"/>
</svg>
