<svg width="23" height="22" viewBox="0 0 23 22" fill="none" xmlns="http://www.w3.org/2000/svg">
<path d="M22.333 8V14H21.333V16H20.333V18H19.333V19H18.333V20H17.333V21H15.333V22H14.333V17H13.333V16H14.333V15H16.333V14H17.333V13H18.333V8H17.333V5H15.333V6H14.333V7H13.333V6H9.33301V7H8.33301V6H7.33301V5H5.33301V8H4.33301V13H5.33301V14H6.33301V15H8.33301V17H6.33301V16H5.33301V15H3.33301V16H4.33301V18H5.33301V19H8.33301V22H7.33301V21H5.33301V20H4.33301V19H3.33301V18H2.33301V16H1.33301V14H0.333008V8H1.33301V6H2.33301V4H3.33301V3H4.33301V2H6.33301V1H8.33301V0H14.333V1H16.333V2H18.333V3H19.333V4H20.333V6H21.333V8H22.333Z" fill="black"/>
</svg>
