<svg width="32" height="32" viewBox="0 0 32 32" fill="none" xmlns="http://www.w3.org/2000/svg">
<path d="M28 13.3333V12H26.6666V9.33331H28V6.66665H26.6666V5.33331H25.3333V3.99998H22.6666V5.33331H20V3.99998H18.6666V1.33331H13.3333V3.99998H12V5.33331H9.33331V3.99998H6.66665V5.33331H5.33331V6.66665H3.99998V9.33331H5.33331V12H3.99998V13.3333H1.33331V18.6666H3.99998V20H5.33331V22.6666H3.99998V25.3333H5.33331V26.6666H6.66665V28H9.33331V26.6666H12V28H13.3333V30.6666H18.6666V28H20V26.6666H22.6666V28H25.3333V26.6666H26.6666V25.3333H28V22.6666H26.6666V20H28V18.6666H30.6666V13.3333H28ZM13.3333 13.3333V12H18.6666V13.3333H20V18.6666H18.6666V20H13.3333V18.6666H12V13.3333H13.3333Z" fill="white"/>
</svg>
