<svg width="12" height="12" viewBox="0 0 12 12" fill="none" xmlns="http://www.w3.org/2000/svg">
<path d="M7.5 6.5H8V7H8.5V7.5H9V8H9.5V8.5H10V9H10.5V9.5H11V10H10.5V10.5H10V11H9.5V10.5H9V10H8.5V9.5H8V9H7.5V8.5H7V8H6.5V7.5H5.5V8H5V8.5H4.5V9H4V9.5H3.5V10H3V10.5H2.5V11H2V10.5H1.5V10H1V9.5H1.5V9H2V8.5H2.5V8H3V7.5H3.5V7H4V6.5H4.5V5.5H4V5H3.5V4.5H3V4H2.5V3.5H2V3H1.5V2.5H1V2H1.5V1.5H2V1H2.5V1.5H3V2H3.5V2.5H4V3H4.5V3.5H5V4H5.5V4.5H6.5V4H7V3.5H7.5V3H8V2.5H8.5V2H9V1.5H9.5V1H10V1.5H10.5V2H11V2.5H10.5V3H10V3.5H9.5V4H9V4.5H8.5V5H8V5.5H7.5V6.5Z" fill="white"/>
</svg>
