<svg width="32" height="32" viewBox="0 0 32 32" fill="none" xmlns="http://www.w3.org/2000/svg">
<path d="M26.6667 7.99998V16H25.3333V17.3333H24V18.6666H21.3333V20H13.3333V16H17.3333V17.3333H22.6667V16H24V14.6666H25.3333V9.33331H24V6.66665H22.6667V5.33331H21.3333V3.99998H20V2.66665H12V3.99998H10.6667V5.33331H9.33333V6.66665H8V9.33331H6.66667V14.6666H5.33333V13.3333H4V9.33331H5.33333V7.99998H6.66667V5.33331H8V3.99998H9.33333V2.66665H10.6667V1.33331H21.3333V2.66665H22.6667V3.99998H24V5.33331H25.3333V7.99998H26.6667Z" fill="white"/>
<path d="M24 10.6666V13.3333H22.6667V14.6666H21.3333V16H18.6667V14.6666H12V18.6666H10.6667V17.3333H9.33333V16H8V10.6666H9.33333V7.99998H10.6667V6.66665H12V5.33331H20V6.66665H21.3333V7.99998H22.6667V10.6666H24Z" fill="white"/>
<path d="M29.3334 25.3333V29.3333H28V30.6666H4.00002V29.3333H2.66669V25.3333H4.00002V24H5.33335V22.6666H6.66669V21.3333H12V22.6666H20V21.3333H25.3334V22.6666H26.6667V24H28V25.3333H29.3334Z" fill="white"/>
</svg>
