<svg width="32" height="32" viewBox="0 0 32 32" fill="none" xmlns="http://www.w3.org/2000/svg">
<path d="M13.3333 25.3333L13.3333 26.6667L10.6667 26.6667L10.6667 25.3333L9.33334 25.3333L9.33334 24L8.00001 24L8.00001 22.6667L6.66668 22.6667L6.66668 21.3333L5.33334 21.3333L5.33334 20L4.00001 20L4.00001 18.6667L2.66668 18.6667L2.66668 17.3333L1.33334 17.3333L1.33334 14.6667L2.66668 14.6667L2.66668 13.3333L4.00001 13.3333L4.00001 12L5.33334 12L5.33334 10.6667L6.66668 10.6667L6.66668 9.33333L8.00001 9.33333L8.00001 8L9.33334 8L9.33334 6.66667L10.6667 6.66667L10.6667 5.33333L13.3333 5.33333L13.3333 6.66667L14.6667 6.66667L14.6667 9.33333L13.3333 9.33333L13.3333 10.6667L12 10.6667L12 12L10.6667 12L10.6667 13.3333L22.6667 13.3333L22.6667 18.6667L10.6667 18.6667L10.6667 20L12 20L12 21.3333L13.3333 21.3333L13.3333 22.6667L14.6667 22.6667L14.6667 25.3333L13.3333 25.3333Z" fill="white"/>
<path d="M26.6667 2.66667L26.6667 29.3333L30.6667 29.3333L30.6667 2.66667L26.6667 2.66667Z" fill="white"/>
</svg>
