<svg width="32" height="32" viewBox="0 0 32 32" fill="none" xmlns="http://www.w3.org/2000/svg">
<path d="M6.66665 21.3333V22.6667H5.33331V24H1.33331V18.6667H2.66665V16H1.33331V9.33333H2.66665V6.66667H5.33331V5.33333H7.99998V4H14.6666V5.33333H17.3333V6.66667H20V9.33333H21.3333V16H20V18.6667H17.3333V20H14.6666V21.3333H6.66665Z" fill="white"/>
<path d="M30.6667 14.6666V21.3333H29.3333V24H30.6667V29.3333H26.6667V28H25.3333V26.6666H17.3333V25.3333H14.6667V24H12V22.6666H16V21.3333H18.6667V20H21.3333V17.3333H22.6667V9.33331H24V10.6666H26.6667V12H29.3333V14.6666H30.6667Z" fill="white"/>
</svg>
