<svg width="32" height="32" viewBox="0 0 32 32" fill="none" xmlns="http://www.w3.org/2000/svg">
<path d="M20.48 1.45455V18.9091C20.48 19.2949 20.3451 19.6648 20.1051 19.9376C19.8651 20.2104 19.5395 20.3636 19.2 20.3636H12.8C12.4605 20.3636 12.1349 20.2104 11.8949 19.9376C11.6549 19.6648 11.52 19.2949 11.52 18.9091V1.45455C11.52 1.06878 11.6549 0.698807 11.8949 0.426027C12.1349 0.153247 12.4605 0 12.8 0H19.2C19.5395 0 19.8651 0.153247 20.1051 0.426027C20.3451 0.698807 20.48 1.06878 20.48 1.45455ZM30.72 0H24.32C23.9805 0 23.6549 0.153247 23.4149 0.426027C23.1749 0.698807 23.04 1.06878 23.04 1.45455V10.1818C23.04 10.5676 23.1749 10.9376 23.4149 11.2103C23.6549 11.4831 23.9805 11.6364 24.32 11.6364H30.72C31.0595 11.6364 31.3851 11.4831 31.6251 11.2103C31.8651 10.9376 32 10.5676 32 10.1818V1.45455C32 1.06878 31.8651 0.698807 31.6251 0.426027C31.3851 0.153247 31.0595 0 30.72 0ZM30.72 14.5455H24.32C23.9805 14.5455 23.6549 14.6987 23.4149 14.9715C23.1749 15.2443 23.04 15.6142 23.04 16V23.2727C23.04 24.0443 23.3097 24.7842 23.7898 25.3298C24.2699 25.8753 24.921 26.1818 25.6 26.1818H29.44C30.119 26.1818 30.7701 25.8753 31.2502 25.3298C31.7303 24.7842 32 24.0443 32 23.2727V16C32 15.6142 31.8651 15.2443 31.6251 14.9715C31.3851 14.6987 31.0595 14.5455 30.72 14.5455ZM7.68 0H1.28C0.940523 0 0.61495 0.153247 0.374904 0.426027C0.134857 0.698807 0 1.06878 0 1.45455V10.1818C0 10.5676 0.134857 10.9376 0.374904 11.2103C0.61495 11.4831 0.940523 11.6364 1.28 11.6364H7.68C8.01948 11.6364 8.34505 11.4831 8.5851 11.2103C8.82514 10.9376 8.96 10.5676 8.96 10.1818V1.45455C8.96 1.06878 8.82514 0.698807 8.5851 0.426027C8.34505 0.153247 8.01948 0 7.68 0ZM7.68 14.5455H1.28C0.940523 14.5455 0.61495 14.6987 0.374904 14.9715C0.134857 15.2443 0 15.6142 0 16V29.0909C0 29.8624 0.269713 30.6024 0.749807 31.1479C1.2299 31.6935 1.88105 32 2.56 32H6.4C7.07895 32 7.7301 31.6935 8.21019 31.1479C8.69029 30.6024 8.96 29.8624 8.96 29.0909V16C8.96 15.6142 8.82514 15.2443 8.5851 14.9715C8.34505 14.6987 8.01948 14.5455 7.68 14.5455Z" fill="white"/>
</svg>
