<svg width="16" height="16" viewBox="0 0 16 16" fill="none" xmlns="http://www.w3.org/2000/svg">
<path d="M1.33335 8.66667V8H0.666687V6.66667H1.33335V6H4.66669V8H5.33335V8.66667H1.33335Z" fill="#24FF00"/>
<path d="M3.33335 4.66669H2.66669V3.33335H3.33335V2.66669H4.66669V3.33335H5.33335V4.00002H4.66669V5.33335H3.33335V4.66669Z" fill="#24FF00"/>
<path d="M5.33331 4.66665H5.99998V3.99998H6.66665V3.33331H9.33331V3.99998H9.99998V4.66665H10.6666V7.33331H9.99998V7.99998H9.33331V8.66665H6.66665V7.99998H5.99998V7.33331H5.33331V4.66665Z" fill="#24FF00"/>
<path d="M12.6667 12H13.3334V14H12.6667V14.6667H3.33335V14H2.66669V12H3.33335V11.3333H4.00002V10.6667H5.33335V10H10.6667V10.6667H12V11.3333H12.6667V12Z" fill="#24FF00"/>
<path d="M15.3334 6.66667V8H14.6667V8.66667H10.6667V8H11.3334V6H14.6667V6.66667H15.3334Z" fill="#24FF00"/>
<path d="M11.3334 4.00002H10.6667V3.33335H11.3334V2.66669H12.6667V3.33335H13.3334V4.66669H12.6667V5.33335H11.3334V4.00002Z" fill="#24FF00"/>
</svg>
